<?xml version="1.0" encoding="UTF-8" standalone="no"?>
<!-- Created with Inkscape (http://www.inkscape.org/) -->

<svg
   xmlns:dc="http://purl.org/dc/elements/1.1/"
   xmlns:cc="http://creativecommons.org/ns#"
   xmlns:rdf="http://www.w3.org/1999/02/22-rdf-syntax-ns#"
   xmlns:svg="http://www.w3.org/2000/svg"
   xmlns="http://www.w3.org/2000/svg"
   xmlns:sodipodi="http://sodipodi.sourceforge.net/DTD/sodipodi-0.dtd"
   xmlns:inkscape="http://www.inkscape.org/namespaces/inkscape"
   width="210mm"
   height="297mm"
   viewBox="0 0 210 297"
   version="1.1"
   id="svg8"
   inkscape:export-filename="/home/sabina/Documents/projects/Spanzuratoarea/images/1.png"
   inkscape:export-xdpi="299"
   inkscape:export-ydpi="299"
   inkscape:version="0.92.5 (2060ec1f9f, 2020-04-08)"
   sodipodi:docname="hangman.svg">
  <defs
     id="defs2" />
  <sodipodi:namedview
     id="base"
     pagecolor="#ffffff"
     bordercolor="#666666"
     borderopacity="1.0"
     inkscape:pageopacity="0.0"
     inkscape:pageshadow="2"
     inkscape:zoom="5.6"
     inkscape:cx="518.83889"
     inkscape:cy="603.83782"
     inkscape:document-units="mm"
     inkscape:current-layer="layer1"
     showgrid="false"
     inkscape:window-width="1366"
     inkscape:window-height="703"
     inkscape:window-x="0"
     inkscape:window-y="0"
     inkscape:window-maximized="1" />
  <metadata
     id="metadata5">
    <rdf:RDF>
      <cc:Work
         rdf:about="">
        <dc:format>image/svg+xml</dc:format>
        <dc:type
           rdf:resource="http://purl.org/dc/dcmitype/StillImage" />
        <dc:title></dc:title>
      </cc:Work>
    </rdf:RDF>
  </metadata>
  <g
     inkscape:label="Layer 1"
     inkscape:groupmode="layer"
     id="layer1">
    <g
       id="g863"
       transform="matrix(0.26348128,0,0,0.30066885,110.57535,102.20015)"
       inkscape:export-xdpi="299"
       inkscape:export-ydpi="299">
      <path
         inkscape:connector-curvature="0"
         id="path815"
         d="m 52.139414,148.60592 97.018276,0.20305"
         style="fill:none;stroke:#000000;stroke-width:0.77662671px;stroke-linecap:butt;stroke-linejoin:miter;stroke-opacity:1" />
      <path
         inkscape:connector-curvature="0"
         id="path830"
         d="m 144.26655,134.29231 0.2182,0.37569 c 0.16561,0.28561 0.21482,0.56101 0.20493,1.14774 l -0.0133,0.77204 -0.12335,-0.5364 c -0.0679,-0.29494 -0.16044,-0.57477 -0.20542,-0.62167 -0.045,-0.0469 -0.0818,-0.32206 -0.0816,-0.61133 z m 3.04982,0.19172 c 0.0535,-0.002 0.0457,0.14533 -0.055,0.49713 -0.0813,0.28402 -0.12261,0.51625 -0.0919,0.51625 0.0307,0 0.0174,0.0648 -0.0295,0.14366 -0.0468,0.0789 -0.0939,0.20445 -0.10468,0.27905 -0.0108,0.0746 -0.15556,0.69393 -0.32139,1.37666 -0.22132,0.91111 -0.39312,1.36376 -0.64574,1.70067 -0.18929,0.25246 -0.50252,0.70428 -0.69636,1.00408 -0.53739,0.83108 -0.65789,0.70212 -0.45654,-0.48783 0.0481,-0.28399 0.0931,-0.40039 0.10075,-0.25838 0.008,0.142 0.0681,0.25838 0.13465,0.25838 0.12847,0 0.10678,-0.27277 -0.11205,-1.39992 -0.0698,-0.35969 -0.11283,-1.08272 -0.0953,-1.60661 l 0.0319,-0.9524 0.37348,1.00407 c 0.20539,0.55225 0.40957,1.00407 0.4536,1.00407 0.0441,0 0.15185,-0.21958 0.23981,-0.48782 0.40284,-1.2285 1.11389,-2.58384 1.27428,-2.59106 z m -9.43989,0.0258 c 0.0603,0.0297 0.2079,0.27687 0.35481,0.601 0.16792,0.37042 0.34647,0.70502 0.39659,0.74362 0.0501,0.0386 0.095,0.11598 0.0988,0.17208 0.004,0.0561 0.0694,0.25771 0.14497,0.44804 0.20331,0.51167 0.98443,2.92769 1.07525,3.32589 0.0902,0.39562 0.0902,0.39576 -0.69194,-0.67179 -0.4788,-0.65358 -0.62166,-0.96404 -0.8428,-1.83296 -0.14642,-0.57534 -0.28502,-1.15103 -0.30813,-1.27899 -0.0231,-0.12798 -0.0519,-0.24517 -0.0639,-0.26097 -0.012,-0.0158 -0.0278,-0.0765 -0.0354,-0.13436 -0.008,-0.0579 -0.0471,-0.13993 -0.088,-0.18293 -0.0409,-0.043 -0.0481,-0.15076 -0.0157,-0.23926 0.0323,-0.0885 0.0127,-0.16072 -0.0437,-0.16072 -0.11229,0 -0.11306,-0.41028 -9.9e-4,-0.52813 0.005,-0.005 0.0115,-0.005 0.0202,-5.2e-4 z m 4.65139,0.42736 c 0.01,-0.005 0.0203,-0.002 0.0305,0.008 0.0689,0.0677 0.13045,0.33569 0.13711,0.59583 0.0103,0.41872 0.36291,3.17104 0.53517,4.177 0.0773,0.45171 0.22156,0.39829 0.31304,-0.11627 0.0366,-0.20589 0.0873,-0.45204 0.11303,-0.54674 0.0258,-0.0947 0.0538,-0.2237 0.0624,-0.2868 0.008,-0.0631 0.0568,-0.005 0.10812,0.12816 0.0538,0.14018 0.0445,0.61152 -0.0226,1.11466 -0.11432,0.85667 -0.11129,0.87858 0.17839,1.27795 l 0.29486,0.40618 0.32139,-0.37 c 0.17686,-0.20361 0.3214,-0.41332 0.3214,-0.46612 0,-0.0527 0.0386,-0.0711 0.086,-0.0403 0.0474,0.0308 0.32665,-0.34011 0.62018,-0.82424 l 0.5337,-0.88005 0.0904,0.34313 c 0.17481,0.66199 0.64939,3.44727 0.67916,3.98684 0.0273,0.49412 0.0158,0.52393 -0.12188,0.31729 -0.0835,-0.12536 -0.20422,-0.3864 -0.26832,-0.57981 -0.0641,-0.19341 -0.13624,-0.33112 -0.1602,-0.30592 -0.0454,0.0478 0.26034,1.04148 0.67178,2.18281 0.15774,0.43759 0.26327,0.60595 0.30616,0.48834 0.036,-0.0987 -0.0327,-0.42147 -0.15332,-0.71727 -0.2519,-0.61793 -0.26186,-0.54991 0.44229,-3.13521 0.56662,-2.08041 0.78521,-2.98515 0.78235,-3.23959 -0.001,-0.10921 0.0436,-0.2286 0.0998,-0.2651 0.0562,-0.0365 0.10328,-0.20533 0.10419,-0.37517 9.5e-4,-0.16984 0.0433,-0.37832 0.0943,-0.46302 0.3017,-0.50055 0.17409,1.66429 -0.25554,4.3372 -0.15556,0.96758 -0.25746,1.78599 -0.22655,1.8185 0.0797,0.0838 1.69011,-1.79563 3.03557,-3.54242 l 0.30321,-0.39326 -0.20984,0.45888 c -0.11531,0.25246 -0.20732,0.50394 -0.20542,0.55914 0.002,0.0552 -0.19019,0.33954 -0.42755,0.63149 -0.54248,0.66726 -0.70267,0.94986 -0.36562,0.64544 0.2007,-0.18128 0.15767,-0.0488 -0.20493,0.63097 -0.99945,1.87379 -1.89947,3.91335 -1.78143,4.03748 0.0816,0.0859 0.0803,0.20341 -0.004,0.3979 -0.0935,0.21572 -0.0799,0.36266 0.0614,0.67438 0.0994,0.21923 0.23373,0.39843 0.2983,0.39843 0.0646,0 0.0862,0.0531 0.0482,0.11782 -0.038,0.0647 -0.01,0.10308 0.0629,0.0858 0.0727,-0.0173 0.17061,0.11066 0.21721,0.28422 h -4.9e-4 l 0.085,0.31523 h -4.77523 -4.77474 l -0.007,-0.48834 c -0.006,-0.42143 -0.22351,-1.24701 -0.51502,-1.9544 -0.0587,-0.14243 -0.0409,-0.19571 0.058,-0.1726 0.0871,0.0204 0.15392,-0.0943 0.17151,-0.29508 0.0393,-0.44796 0.14854,-0.53457 0.15234,-0.12092 0.003,0.28709 0.0192,0.30595 0.11647,0.13022 0.17254,-0.31174 -0.058,-2.85954 -0.29289,-3.23649 -0.13911,-0.22324 -0.1693,-0.44627 -0.12384,-0.90899 0.037,-0.37738 -0.0159,-1.02626 -0.1376,-1.68878 -0.10872,-0.59179 -0.18259,-1.09251 -0.16414,-1.11311 0.0408,-0.0457 0.77805,1.09539 1.19025,1.84226 0.28331,0.51335 0.6598,1.97424 0.55482,2.15284 -0.0589,0.10025 0.68533,1.03404 0.82413,1.03404 0.10624,0 0.05,-0.16535 -0.59905,-1.76423 -0.27892,-0.68709 -0.12535,-0.61874 0.27372,0.12196 0.19755,0.36665 0.39255,0.69239 0.43344,0.72399 0.0409,0.0315 0.18028,0.27694 0.30961,0.54518 0.12932,0.26823 0.27701,0.48783 0.32827,0.48783 0.0513,0 0.12463,0.16335 0.16267,0.36328 0.0556,0.29252 -3.5e-4,0.47134 -0.28651,0.91519 -0.19558,0.30336 -0.3843,0.55249 -0.41968,0.55449 -0.0767,0.004 -0.1358,-0.12731 -1.05117,-2.34921 -1.00562,-2.44095 -1.03274,-2.40619 -0.17937,0.22944 0.57983,1.79082 0.95345,2.69594 1.00252,2.42931 0.0194,-0.10539 0.0938,-0.19172 0.16512,-0.19172 0.0846,0 0.12558,0.2017 0.11892,0.57878 -0.006,0.34763 0.0254,0.51966 0.0801,0.43046 0.0501,-0.0817 0.0636,-0.28683 0.03,-0.45578 -0.0701,-0.35141 0.124,-0.80338 0.55434,-1.29088 0.16294,-0.18459 0.30475,-0.39864 0.3155,-0.47594 0.0108,-0.0773 0.0707,-0.21029 0.13317,-0.29559 0.0624,-0.0853 0.25169,-0.36145 0.42018,-0.61391 l 0.30616,-0.45889 -0.39315,0.45889 c -0.21628,0.25246 -0.39566,0.49788 -0.39756,0.54518 -0.0105,0.22146 -0.19167,0.0471 -0.31059,-0.29869 -0.10995,-0.31973 -0.10245,-0.45983 0.0452,-0.83147 0.12822,-0.32191 0.16298,-0.66232 0.12532,-1.21543 -0.0516,-0.75847 -0.0497,-0.765 0.14939,-0.51677 0.2006,0.2501 0.20091,0.24973 0.0791,-0.14986 -0.0673,-0.22091 -0.1644,-0.45108 -0.21622,-0.51108 -0.0518,-0.06 -0.0944,-0.26377 -0.0944,-0.4532 0,-0.28917 -0.42432,-1.63359 -1.1529,-3.65456 -0.1378,-0.38242 -0.13615,-0.43046 0.0143,-0.43046 0.0931,0 0.14157,0.0472 0.10762,0.1049 -0.034,0.0577 -0.0247,0.12195 0.0206,0.14314 0.0454,0.0212 0.22845,0.33576 0.40641,0.69867 0.17796,0.36291 0.36641,0.65991 0.41919,0.65991 0.0527,0 0.0619,-0.26117 0.0202,-0.58033 -0.10173,-0.77785 0.0223,-2.43285 0.17249,-2.50476 z m 1.49051,3.32693 c 0.009,0.01 -0.003,0.0541 -0.0324,0.13591 -0.041,0.11313 -0.10207,0.17638 -0.13564,0.14108 -0.0336,-0.0353 1.4e-4,-0.12787 0.0747,-0.20567 0.0539,-0.0563 0.0842,-0.081 0.0934,-0.0713 z m -45.2814,0.61857 0.0113,0.36587 c 0.006,0.2014 0.054,0.39398 0.10615,0.42788 0.0521,0.0339 0.12745,0.32148 0.16758,0.63924 0.0401,0.31776 0.10091,0.65489 0.13514,0.74879 0.113,0.30967 -0.0448,0.17752 -0.27225,-0.22789 -0.28445,-0.50686 -0.36899,-1.04202 -0.24523,-1.55236 z m 26.37607,0.28681 c 0.0326,0 0.0332,0.11637 9.8e-4,0.25838 -0.0322,0.14201 -0.0765,0.41319 -0.0983,0.60254 -0.0218,0.18934 -0.12452,0.80915 -0.22852,1.37718 -0.30721,1.67784 -0.463,2.92592 -0.36513,2.92592 0.0502,0 0.0935,-0.0642 0.0963,-0.14314 0.003,-0.0789 0.24838,-0.66026 0.54598,-1.2914 0.5789,-1.22772 0.58057,-1.22575 0.36907,0.33228 -0.0579,0.42608 -0.0444,0.54063 0.056,0.47542 0.0978,-0.0636 0.11505,0.0142 0.0668,0.29921 -0.0358,0.21185 -0.09,0.68922 -0.1204,1.06092 -0.0304,0.37169 -0.0785,0.71569 -0.10713,0.76429 -0.0285,0.0486 -0.0203,0.17496 0.0182,0.28061 0.0559,0.15316 0.0887,0.16074 0.16218,0.0387 0.063,-0.1044 0.0934,-0.10922 0.0944,-0.016 9.1e-4,0.0752 -0.0438,0.16605 -0.0993,0.20205 -0.13711,0.0891 -0.48364,1.20759 -0.40101,1.29449 0.0364,0.0382 0.19529,-0.0555 0.35334,-0.20825 0.32348,-0.31268 0.324,-0.31491 -0.12482,0.66662 l -0.32729,0.7152 -2.22815,-0.0264 -2.22864,-0.0269 -0.2462,-0.84749 c -0.38133,-1.31402 -0.40131,-1.42324 -0.23933,-1.31517 0.17093,0.1141 0.74108,0.12828 0.74108,0.0186 0,-0.0432 -0.0731,-0.44473 -0.16266,-0.89245 -0.0896,-0.44773 -0.18817,-1.1096 -0.21869,-1.47071 -0.0641,-0.75764 -0.0626,-0.69204 -0.0403,-1.7632 0.017,-0.81235 0.019,-0.81633 0.18822,-0.48731 0.0939,0.1826 0.17717,0.35752 0.18478,0.38913 0.008,0.0315 0.0953,0.24974 0.19509,0.48472 0.0997,0.23498 0.19742,0.51882 0.21672,0.63097 0.0193,0.11215 0.12288,0.41055 0.22999,0.66301 0.10712,0.25245 0.33236,0.94967 0.50077,1.54926 l 0.30616,1.08985 -0.0531,-0.91777 c -0.0291,-0.50491 -0.1683,-1.46017 -0.3096,-2.12287 -0.3332,-1.56268 -0.53102,-2.86569 -0.44819,-2.95279 0.0361,-0.0379 0.0659,0.0221 0.0659,0.13333 0,0.11123 0.0914,0.33889 0.20345,0.50643 0.22397,0.33497 0.78912,1.89062 1.05313,2.89904 0.15197,0.5805 0.19331,0.63777 0.42755,0.59066 0.18501,-0.0372 0.27714,0.009 0.32041,0.1602 0.0712,0.24889 -0.012,-0.29995 -0.10271,-0.67748 -0.0341,-0.14218 -7.3e-4,-0.41336 0.0742,-0.60254 l 0.13612,-0.34365 0.0501,0.2868 c 0.0411,0.2351 0.0754,0.18341 0.19018,-0.2868 0.43082,-1.76519 0.71493,-2.81375 0.86443,-3.18999 0.0926,-0.23299 0.1737,-0.46296 0.18036,-0.51056 0.0261,-0.19119 0.20187,-0.60306 0.25751,-0.60306 z m 1.9495,0.047 c 0.0188,0.007 -0.0557,0.22285 -0.1838,0.52658 -0.14644,0.34713 -0.43142,1.05193 -0.63345,1.5658 -0.20203,0.51387 -0.39014,0.91158 -0.41772,0.88418 -0.10272,-0.10219 0.0221,-1.02315 0.1838,-1.35754 0.15494,-0.32032 0.81429,-1.3427 1.03741,-1.60869 0.007,-0.008 0.0111,-0.0113 0.0138,-0.0103 z m -23.67516,0.25735 c 0.0149,2.1e-4 0.0353,0.0401 0.0639,0.11472 0.0521,0.13587 0.0678,0.35547 0.0349,0.48783 h 4.9e-4 c -0.0935,0.37628 -0.14422,0.28483 -0.13661,-0.24702 0.003,-0.24559 0.0124,-0.35589 0.0373,-0.35553 z m 42.69991,0.19637 c -0.0158,-0.0166 -0.43061,0.95778 -0.92241,2.16576 -0.82731,2.03212 -1.05995,2.75644 -0.6305,1.96267 0.16468,-0.30442 0.17111,-0.30691 0.10369,-0.0388 -0.0397,0.15782 -0.0309,0.24595 0.0192,0.19586 0.0975,-0.0975 1.47818,-4.23493 1.43006,-4.28553 z m -8.24227,0.0786 c 0.0149,-0.0137 0.0559,0.0283 0.12237,0.11937 0.0731,0.10021 0.25537,0.35141 0.40543,0.55862 0.15005,0.20721 0.35887,0.45961 0.46391,0.56069 0.11737,0.11291 0.19116,0.35118 0.19116,0.61753 0,0.23844 -0.0375,0.43305 -0.0835,0.43305 -0.1215,0 -0.76851,-1.17036 -0.95632,-1.73012 -0.12061,-0.35942 -0.16783,-0.53631 -0.14301,-0.55914 z m -15.62995,0.0305 c 0.0168,-0.0102 0.0385,0.008 0.0658,0.047 0.0746,0.10666 0.11064,0.26135 0.0806,0.34365 -0.03,0.0823 -0.007,0.21387 0.0521,0.29197 0.11112,0.14738 0.35474,1.69645 0.35284,2.24069 -10e-4,0.28657 -0.0232,0.27115 -0.27815,-0.19792 -0.23804,-0.43791 -0.28096,-0.67346 -0.30911,-1.69034 -0.02,-0.72017 -0.0145,-1.00449 0.0359,-1.03507 z m -2.7127,0.22014 c 0.0349,-0.0157 0.11048,0.0324 0.22901,0.12712 0.12344,0.0987 0.20398,0.38756 0.2462,0.88574 0.0671,0.79121 0.0531,0.77704 -0.32139,-0.32246 -0.15695,-0.46081 -0.21201,-0.66419 -0.15382,-0.6904 z m -17.96376,0.24236 c 0.0954,0.057 0.19181,1.22064 0.11647,1.53634 -0.0963,0.40341 -0.0954,0.41942 0.029,0.46302 0.0569,0.0199 0.1406,-0.0818 0.18625,-0.22634 0.0618,-0.19563 0.10396,-0.0577 0.16463,0.54002 0.0782,0.77064 0.0638,0.84756 -0.35727,1.89342 -0.2414,0.59959 -0.50638,1.25836 -0.58873,1.46348 -0.20249,0.50449 -0.094,0.475 0.1371,-0.0372 0.11982,-0.26518 0.21298,-0.36092 0.26538,-0.27182 0.0456,0.0776 0.1415,0.0983 0.21967,0.0475 0.10346,-0.0673 0.12015,-0.0204 0.0658,0.18603 -0.18087,0.68787 -0.20107,0.85437 -0.0816,0.67748 0.0855,-0.12655 0.11699,-0.13215 0.11794,-0.0217 9.3e-4,0.0826 0.0562,0.11461 0.12286,0.0713 0.0711,-0.0462 0.0967,-0.23927 0.0614,-0.46767 -0.0576,-0.37322 0.13022,-1.1198 0.50716,-2.01435 0.0878,-0.20848 0.22315,-0.63405 0.30075,-0.9462 0.18928,-0.76116 0.24248,-0.51578 0.11745,0.54312 -0.10508,0.89008 -0.0182,1.86125 0.12532,1.40147 0.14097,-0.45146 0.2905,-1.85184 0.2924,-2.74092 0.002,-0.86606 0.17218,-1.79214 0.32926,-1.79214 0.10586,0 0.32778,2.01516 0.32778,2.97708 0,0.44548 0.0351,0.80977 0.0781,0.80977 0.0431,0 0.33808,-0.26922 0.65508,-0.59841 0.56091,-0.58254 0.78016,-0.62771 0.37447,-0.077 -0.79934,1.08507 -1.08612,1.67038 -1.16125,2.36833 -0.0425,0.39447 -0.0351,0.71727 0.0162,0.71727 0.0514,0 0.35832,-0.28436 0.6821,-0.63149 0.32379,-0.34713 0.62952,-0.63097 0.67916,-0.63097 0.0788,0 -0.82318,1.56957 -0.98925,1.72134 -0.20783,0.18996 -0.7726,1.32226 -0.72486,1.45315 0.0478,0.13052 -0.39265,0.15211 -2.64095,0.12661 l -2.69845,-0.0305 -0.10909,-0.64233 c -0.06,-0.35313 -0.26893,-0.96114 -0.46441,-1.35134 -0.33431,-0.66736 -0.3401,-0.69908 -0.10025,-0.53382 0.14024,0.0968 0.28756,0.141 0.32779,0.0987 0.11452,-0.12041 0.0857,-0.59084 -0.0413,-0.67334 -0.0783,-0.0509 -0.0743,-0.12482 0.0123,-0.23461 0.0696,-0.0882 0.1067,-0.34151 0.0821,-0.56327 -0.0246,-0.22178 -0.0117,-0.4036 0.029,-0.4036 0.0842,0 0.27757,0.47971 0.38086,0.94465 0.0582,0.26186 0.10266,0.29458 0.27078,0.19999 0.15339,-0.0863 0.22744,-0.0653 0.31255,0.0884 0.0614,0.11084 0.11309,0.16651 0.115,0.12351 0.006,-0.14747 -0.62887,-1.87275 -1.02218,-2.77658 -0.21627,-0.49702 -0.38908,-1.03889 -0.38528,-1.20457 0.005,-0.20242 0.0318,-0.24483 0.0816,-0.1292 0.0408,0.0947 0.21001,0.39148 0.37594,0.65991 0.16594,0.26843 0.40895,0.72077 0.54008,1.00459 0.13113,0.28381 0.27031,0.51573 0.30911,0.51573 0.0388,0 0.0102,-0.3486 -0.0634,-0.77463 -0.0737,-0.42602 -0.16451,-1.06986 -0.20198,-1.43092 -0.0575,-0.55408 -0.0425,-0.64626 0.0953,-0.59066 0.21906,0.0884 0.82156,0.9649 1.41139,2.05311 l 0.48307,0.8909 0.13515,-0.50436 c 0.2247,-0.83579 0.20616,-1.4438 -0.0673,-2.17765 -0.13909,-0.37329 -0.20739,-0.67903 -0.15185,-0.67903 0.0556,0 0.10074,0.0423 0.10074,0.0935 0,0.0512 0.10561,0.2117 0.23442,0.35708 0.20152,0.22744 0.24696,0.23957 0.32827,0.0868 0.052,-0.0976 0.11238,-0.33765 0.13416,-0.53382 0.0217,-0.19618 0.0662,-0.38531 0.0988,-0.41961 0.006,-0.007 0.0128,-0.007 0.0192,-0.004 z m -4.26758,0.81132 c 0.002,-0.0174 0.0457,0.0259 0.11647,0.11782 0.0945,0.12251 0.17151,0.3249 0.17151,0.44959 0,0.27943 -0.0997,0.19164 -0.1607,-0.14108 -0.0247,-0.13501 -0.0762,-0.30939 -0.11401,-0.38809 -0.009,-0.0197 -0.0138,-0.0324 -0.0133,-0.0382 z m 4.7256,0.22583 c 0.01,-2.7e-4 0.0224,0.004 0.0378,0.0145 0.0594,0.0386 0.10811,0.11836 0.10811,0.17776 0,0.16507 -0.0783,0.12904 -0.15087,-0.0698 -0.028,-0.0765 -0.0246,-0.12166 0.005,-0.12247 z m 17.19663,0.6935 c 0.0241,-9e-5 0.0623,0.0299 0.12335,0.0899 0.0825,0.0811 0.12704,0.20957 0.0993,0.28577 -0.0279,0.0762 -0.0109,0.20542 0.0378,0.28732 0.0486,0.0819 0.0976,0.20045 0.10861,0.26355 0.011,0.0631 0.26177,0.89387 0.55728,1.84588 l 0.53713,1.73117 -0.45113,-0.26562 -0.45114,-0.2651 -0.24964,-1.29346 c -0.13731,-0.7115 -0.26256,-1.50042 -0.27815,-1.75287 -0.0155,-0.25246 -0.041,-0.51051 -0.057,-0.57361 -0.016,-0.0631 -0.0229,-0.18111 -0.0162,-0.26251 0.005,-0.0602 0.0157,-0.0904 0.0398,-0.0904 z m 27.19282,0.24701 c -0.0291,-0.0327 -0.27016,0.47641 -0.58578,1.24643 -0.3607,0.88003 -0.6324,1.62478 -0.60397,1.65468 0.0284,0.0299 0.0526,-0.0191 0.0536,-0.10852 0.001,-0.13342 0.02,-0.13139 0.10713,0.0103 0.14983,0.24371 0.13478,0.80305 -0.0216,0.80305 -0.10185,0 -0.10185,0.0309 0,0.13798 0.072,0.0757 0.13072,0.22891 0.13072,0.34054 0,0.12458 0.0577,0.17963 0.14939,0.14263 0.0919,-0.0371 0.36862,0.22898 0.71896,0.69195 0.59566,0.78713 0.69882,0.88491 0.58333,0.5519 l -4.9e-4,-5.2e-4 c -0.0615,-0.17723 -0.0384,-0.17451 0.19461,0.0258 0.34434,0.29611 -0.36565,-0.52729 -0.9637,-1.11776 -0.34162,-0.33728 -0.46391,-0.54693 -0.46391,-0.7953 0,-0.18545 -0.0475,-0.4308 -0.10565,-0.54519 -0.0773,-0.15183 -0.0142,-0.49792 0.23342,-1.28312 0.18656,-0.5915 0.37588,-1.12701 0.42067,-1.19011 0.0448,-0.0631 0.11326,-0.29586 0.15234,-0.51676 0.005,-0.0276 0.005,-0.0434 9.8e-4,-0.0481 z m -6.69819,0.35812 c -0.0414,-0.0235 0.085,0.45548 0.28208,1.00769 0.15811,0.44314 0.3334,0.85725 0.3897,0.92035 0.0869,0.0974 -0.26573,-0.96675 -0.57055,-1.72134 -0.0547,-0.13534 -0.0874,-0.19888 -0.10123,-0.2067 z m -40.10959,0.16846 c -0.0288,0.0303 0.10083,0.54185 0.28797,1.13688 0.18714,0.59504 0.37399,1.12156 0.41526,1.16996 0.0935,0.10966 0.2241,-0.0183 0.2241,-0.21963 0,-0.21145 -0.86333,-2.15451 -0.92733,-2.08721 z m 44.64451,0.0326 c -0.0394,0.0171 -0.0658,0.10017 -0.0658,0.22169 0,0.15779 0.0491,0.31912 0.10909,0.35812 0.0617,0.0401 0.1091,-0.054 0.1091,-0.21601 0,-0.15779 -0.0491,-0.31912 -0.1091,-0.35812 -0.0154,-0.01 -0.0301,-0.0114 -0.0432,-0.006 z m -46.85349,0.40772 c 0.16889,0 0.2959,0.53234 0.2978,1.25264 0.002,0.52275 -0.0834,0.40618 -0.20885,-0.28629 -0.0563,-0.31076 -0.13533,-0.65539 -0.17594,-0.76584 -0.0498,-0.13562 -0.0218,-0.20051 0.087,-0.20051 z m 3.64051,0.38913 c -0.01,9.8e-4 -0.0271,0.0246 -0.0526,0.0698 -0.10268,0.18221 -0.28334,1.45577 -0.40248,2.84014 -0.0394,0.45758 -0.047,0.83199 -0.0172,0.83199 0.0652,0 0.14586,-0.58787 0.29191,-2.12287 0.06,-0.63115 0.13542,-1.27676 0.16709,-1.43454 0.0252,-0.12535 0.0298,-0.18612 0.0133,-0.18448 z m 44.1064,0.22014 c 0.003,-0.018 -0.0707,0.0367 -0.2182,0.14624 -0.16251,0.1207 -0.32065,0.28439 -0.35137,0.36329 -0.0847,0.2178 -0.0237,0.1767 0.32631,-0.21963 0.15998,-0.18117 0.24013,-0.27194 0.24326,-0.2899 z m -0.87819,0.47026 c -0.0251,-0.0264 -0.10206,0.0812 -0.17052,0.23926 -0.0685,0.15805 -0.1028,0.28732 -0.0762,0.28732 0.076,0 0.29767,-0.47298 0.2467,-0.52658 z m -19.02475,0.23047 c -0.0118,-0.005 -0.0327,0.009 -0.0629,0.0403 -0.0638,0.0667 -0.0941,0.18902 -0.0678,0.27182 0.0272,0.0859 0.0769,0.0337 0.11548,-0.12144 0.0297,-0.11933 0.035,-0.18158 0.0152,-0.19069 z m 18.77953,0.35399 -0.24523,0.21859 c -0.13505,0.12023 -0.24571,0.23606 -0.24571,0.25786 0,0.0918 0.0877,0.0241 0.28306,-0.21859 z m -0.83593,1.02164 c -0.0184,-0.006 -0.0576,0.0577 -0.10074,0.17105 -0.0573,0.15117 -0.0848,0.29529 -0.0609,0.32039 0.0547,0.0575 0.18201,-0.28238 0.17249,-0.46147 -9.4e-4,-0.0184 -0.005,-0.0279 -0.0108,-0.03 z m -3.50488,0.34106 c -0.0115,-0.0121 -0.0268,0.004 -0.0442,0.0501 -0.0316,0.0828 -0.0274,0.18152 0.009,0.21962 0.0363,0.0381 0.0618,-0.0294 0.057,-0.15038 -0.003,-0.0668 -0.0101,-0.10731 -0.0216,-0.11937 z m 9.13029,1.48777 c 0.0391,-0.007 0.0668,0.0186 0.0668,0.0687 0,0.0668 -0.0491,0.12144 -0.10909,0.12144 -0.0601,0 -0.1091,-0.0228 -0.1091,-0.0506 0,-0.0278 0.0491,-0.0824 0.1091,-0.12144 0.015,-0.01 0.0292,-0.0158 0.0423,-0.0181 z m -6.30506,0.12402 c -0.0391,0.0106 -0.0663,0.0767 -0.0663,0.17415 0,0.12995 0.0491,0.23616 0.1091,0.23616 0.06,0 0.1091,-0.0745 0.1091,-0.16536 0,-0.091 -0.0491,-0.19717 -0.1091,-0.23616 -0.015,-0.01 -0.0297,-0.0123 -0.0428,-0.009 z m 5.42884,0.19637 c -0.0205,0.0122 -0.044,0.0629 -0.0752,0.14831 -0.0329,0.09 0.004,0.21954 0.0821,0.28784 0.11212,0.0978 0.1312,0.063 0.0899,-0.16381 -0.0376,-0.20687 -0.0627,-0.29272 -0.0968,-0.27234 z"
         style="fill:#000000;stroke-width:0.11190546" />
      <path
         inkscape:connector-curvature="0"
         id="path830-7"
         d="m 52.608118,138.73676 -0.09715,0.40152 c -0.123761,0.51034 -0.03899,1.0455 0.245462,1.55236 0.227449,0.40541 0.384818,0.53756 0.271817,0.22789 -0.03423,-0.0939 -0.09477,-0.43103 -0.134874,-0.74879 -0.04013,-0.31776 -0.115332,-0.60534 -0.167431,-0.63923 -0.05215,-0.0339 -0.100454,-0.22649 -0.106455,-0.42789 z m 4.650362,0.59117 c -0.0249,-3.6e-4 -0.03421,0.10995 -0.03721,0.35554 -0.0076,0.53185 0.04344,0.62329 0.136943,0.24701 h -5.19e-4 c 0.0329,-0.13236 0.01696,-0.35196 -0.03514,-0.48782 -0.0286,-0.0746 -0.04918,-0.11452 -0.06408,-0.11473 z m -1.848464,0.7674 c -0.0064,-0.003 -0.01364,-0.003 -0.01964,0.004 -0.0326,0.0343 -0.077,0.22344 -0.0987,0.41961 -0.02178,0.19617 -0.08184,0.43622 -0.133842,0.53382 -0.08131,0.15277 -0.127143,0.14062 -0.328663,-0.0868 -0.12881,-0.14538 -0.234093,-0.30589 -0.234093,-0.35709 0,-0.0512 -0.04517,-0.0935 -0.100769,-0.0935 -0.05554,0 0.01284,0.30574 0.151929,0.67903 0.27346,0.73385 0.291878,1.34185 0.06718,2.17764 l -0.13539,0.50436 -0.482659,-0.8909 c -0.58983,-1.08821 -1.192741,-1.96471 -1.4118,-2.05311 -0.137801,-0.0556 -0.152586,0.0366 -0.09509,0.59067 0.03747,0.36106 0.128357,1.0049 0.202057,1.43092 0.0736,0.42603 0.102362,0.77463 0.06356,0.77463 -0.0388,0 -0.178412,-0.23192 -0.309542,-0.51573 -0.13113,-0.28382 -0.374078,-0.73616 -0.54002,-1.00459 -0.165928,-0.26843 -0.334885,-0.56521 -0.375687,-0.65991 -0.0498,-0.11563 -0.07665,-0.0732 -0.08165,0.12919 -0.0038,0.16568 0.16872,0.70756 0.38499,1.20458 0.393309,0.90383 1.028158,2.6291 1.02216,2.77657 -0.0019,0.043 -0.05332,-0.0127 -0.114724,-0.1235 -0.08511,-0.1537 -0.159252,-0.17467 -0.312642,-0.0884 -0.168119,0.0946 -0.212585,0.0619 -0.270782,-0.19999 -0.103291,-0.46494 -0.296656,-0.94464 -0.380857,-0.94464 -0.0407,0 -0.05354,0.18181 -0.02894,0.40359 0.0246,0.22176 -0.01257,0.47507 -0.08217,0.56327 -0.0866,0.10979 -0.0907,0.18371 -0.0124,0.23461 0.127003,0.0825 0.155864,0.55294 0.04134,0.67335 -0.04023,0.0423 -0.187391,-0.002 -0.327631,-0.0987 -0.23985,-0.16525 -0.234056,-0.13354 0.100253,0.53382 0.19548,0.3902 0.404572,0.99821 0.464572,1.35134 l 0.109037,0.64234 2.698544,0.0305 c 2.248299,0.0255 2.688465,0.004 2.640666,-0.12661 -0.04774,-0.13089 0.517189,-1.26318 0.725019,-1.45314 0.166071,-0.15177 1.067887,-1.72134 0.989086,-1.72134 -0.04964,0 -0.355237,0.28384 -0.679026,0.63097 -0.323782,0.34713 -0.63073,0.63148 -0.682131,0.63148 -0.0513,0 -0.05852,-0.32279 -0.01602,-0.71726 0.07513,-0.69796 0.361831,-1.28327 1.161171,-2.36834 0.405689,-0.55071 0.186254,-0.50554 -0.374655,0.077 -0.317,0.32919 -0.612156,0.59841 -0.655256,0.59841 -0.043,0 -0.07803,-0.36428 -0.07803,-0.80977 0,-0.96191 -0.221769,-2.97707 -0.327631,-2.97707 -0.157078,0 -0.327179,0.92607 -0.329179,1.79214 -0.0019,0.88907 -0.151516,2.28945 -0.292486,2.74091 -0.143521,0.45978 -0.230656,-0.51138 -0.125574,-1.40146 0.125029,-1.0589 0.07198,-1.30428 -0.117306,-0.54312 -0.0776,0.31215 -0.212957,0.73771 -0.300757,0.94619 -0.376941,0.89455 -0.564547,1.64113 -0.506947,2.01435 0.0353,0.2284 0.0096,0.42147 -0.06149,0.46767 -0.06666,0.0433 -0.12206,0.0113 -0.122989,-0.0713 -9.5e-4,-0.11045 -0.03232,-0.10485 -0.117824,0.0217 -0.11947,0.17689 -0.09922,0.0104 0.08165,-0.67747 0.05435,-0.20643 0.03783,-0.25334 -0.06563,-0.18604 -0.07817,0.0508 -0.17454,0.0301 -0.220141,-0.0475 -0.0524,-0.0891 -0.14528,0.007 -0.265099,0.27182 -0.231101,0.5122 -0.339434,0.54169 -0.136943,0.0372 0.08235,-0.20512 0.347194,-0.86388 0.588594,-1.46347 0.421069,-1.04586 0.435285,-1.12279 0.357085,-1.89343 -0.06067,-0.59772 -0.102532,-0.73565 -0.164333,-0.54002 -0.04565,0.14454 -0.129651,0.24625 -0.186553,0.22635 -0.124399,-0.0436 -0.125237,-0.0596 -0.02894,-0.46302 0.07534,-0.3157 -0.02087,-1.47934 -0.116271,-1.53635 z m -4.267957,0.81183 c -5e-4,0.006 0.0044,0.0186 0.01344,0.0382 0.03781,0.0787 0.08951,0.25309 0.114204,0.3881 0.061,0.33271 0.160714,0.4205 0.160714,0.14107 0,-0.12469 -0.07707,-0.32707 -0.171567,-0.44958 -0.07077,-0.0919 -0.114787,-0.13522 -0.116787,-0.11783 z m 4.72581,0.22583 c -0.0296,8.1e-4 -0.03317,0.046 -0.0052,0.12247 0.07257,0.19884 0.150898,0.23484 0.150898,0.0698 0,-0.0594 -0.0486,-0.13917 -0.108006,-0.17777 -0.0154,-0.0105 -0.02772,-0.0147 -0.03772,-0.0145 z m -2.418458,1.46709 c 0.064,-0.0673 0.927592,1.87577 0.927592,2.08722 0,0.20132 -0.130775,0.32928 -0.224277,0.21962 -0.04127,-0.0484 -0.227819,-0.57492 -0.414961,-1.16996 -0.18714,-0.59502 -0.317154,-1.10658 -0.288354,-1.13688 z m -2.208652,0.44029 c -0.108799,0 -0.137131,0.0649 -0.08733,0.2005 0.04061,0.11045 0.119915,0.45509 0.176215,0.76585 0.12545,0.69247 0.210773,0.80903 0.208773,0.28629 -0.0019,-0.72031 -0.128765,-1.25264 -0.297658,-1.25264 z m 3.640606,0.38912 c 0.0165,-0.002 0.01176,0.0591 -0.01344,0.18449 -0.03167,0.15778 -0.107432,0.80338 -0.167431,1.43454 -0.14605,1.53499 -0.226256,2.12286 -0.291457,2.12286 -0.0298,0 -0.02235,-0.37441 0.01705,-0.83199 0.119139,-1.38437 0.299878,-2.65793 0.402558,-2.84013 0.0255,-0.0452 0.04271,-0.0688 0.05271,-0.0698 z"
         style="fill:#000000;stroke-width:0.11190546" />
    </g>
    <path
       style="fill:none;stroke:#000000;stroke-width:0.26458332px;stroke-linecap:butt;stroke-linejoin:miter;stroke-opacity:1"
       d="M 127.04725,146.84896 V 129.5093"
       id="path865"
       inkscape:connector-curvature="0"
       inkscape:export-xdpi="299"
       inkscape:export-ydpi="299" />
    <path
       style="fill:none;stroke:#000000;stroke-width:0.26458332px;stroke-linecap:butt;stroke-linejoin:miter;stroke-opacity:1"
       d="m 127.04725,129.5093 h 6.09486"
       id="path867"
       inkscape:connector-curvature="0"
       inkscape:export-xdpi="299"
       inkscape:export-ydpi="299" />
    <path
       style="fill:none;stroke:#000000;stroke-width:0.26458332px;stroke-linecap:butt;stroke-linejoin:miter;stroke-opacity:1"
       d="m 133.14211,129.5093 v 1.88988"
       id="path869"
       inkscape:connector-curvature="0"
       inkscape:export-xdpi="299"
       inkscape:export-ydpi="299" />
    <ellipse
       style="fill:none;stroke:#000000;stroke-width:0.26458332;stroke-opacity:1"
       id="path873"
       cx="133.11848"
       cy="132.226"
       inkscape:export-xdpi="299"
       inkscape:export-ydpi="299"
       r="0.87406993" />
    <path
       style="fill:none;stroke:#000000;stroke-width:0.35250208px;stroke-linecap:butt;stroke-linejoin:miter;stroke-opacity:1"
       d="m 133.04762,133.10008 v 3.35453"
       id="path869-3"
       inkscape:connector-curvature="0"
       inkscape:export-xdpi="299"
       inkscape:export-ydpi="299" />
    <path
       style="fill:none;stroke:#000000;stroke-width:0.26458332px;stroke-linecap:butt;stroke-linejoin:miter;stroke-opacity:1"
       d="m 133.14211,134.37574 1.65365,-1.27567"
       id="path890"
       inkscape:connector-curvature="0"
       inkscape:export-xdpi="299"
       inkscape:export-ydpi="299" />
    <path
       style="fill:none;stroke:#000000;stroke-width:0.26458332px;stroke-linecap:butt;stroke-linejoin:miter;stroke-opacity:1"
       d="m 133.14211,134.37574 -1.84263,-1.18117"
       id="path892"
       inkscape:connector-curvature="0"
       inkscape:export-xdpi="299"
       inkscape:export-ydpi="299" />
    <path
       style="fill:none;stroke:#000000;stroke-width:0.26458332px;stroke-linecap:butt;stroke-linejoin:miter;stroke-opacity:1"
       d="m 134.98474,137.73028 -1.93712,-1.27567 -1.93713,1.46466"
       id="path896"
       inkscape:connector-curvature="0"
       inkscape:export-xdpi="299"
       inkscape:export-ydpi="299" />
    <g
       id="g912"
       inkscape:export-xdpi="299"
       inkscape:export-ydpi="299"
       style="fill:#ff0000;stroke:#ff0000;stroke-opacity:1"
       transform="matrix(1.1858123,0,0,1.1416096,-34.096942,-18.056496)">
      <path
         inkscape:connector-curvature="0"
         id="path902"
         d="m 140.5893,131.25938 0.84025,0.71355"
         style="fill:#ff0000;stroke:#ff0000;stroke-width:0.16092926px;stroke-linecap:butt;stroke-linejoin:miter;stroke-opacity:1" />
      <g
         transform="translate(8.0708534,-0.46823764)"
         id="g907"
         style="fill:#ff0000;stroke:#ff0000;stroke-opacity:1">
        <path
           style="fill:#ff0000;stroke:#ff0000;stroke-width:0.16092926px;stroke-linecap:butt;stroke-linejoin:miter;stroke-opacity:1"
           d="m 133.3587,131.59788 -0.84025,0.97303"
           id="path904"
           inkscape:connector-curvature="0" />
      </g>
    </g>
  </g>
</svg>
